<?xml version="1.0" encoding="UTF-8" standalone="no"?>
<!-- Created with Inkscape (http://www.inkscape.org/) -->

<svg
   xmlns:dc="http://purl.org/dc/elements/1.1/"
   xmlns:cc="http://creativecommons.org/ns#"
   xmlns:rdf="http://www.w3.org/1999/02/22-rdf-syntax-ns#"
   xmlns:svg="http://www.w3.org/2000/svg"
   xmlns="http://www.w3.org/2000/svg"
   xmlns:sodipodi="http://sodipodi.sourceforge.net/DTD/sodipodi-0.dtd"
   xmlns:inkscape="http://www.inkscape.org/namespaces/inkscape"
   version="1.1"
   id="svg3726"
   width="47.999992"
   height="66.666664"
   viewBox="0 0 47.999992 66.666664"
   sodipodi:docname="Travel-Eiffel-Tower-icon.svg"
   inkscape:version="0.92.1 r15371">
  <metadata
     id="metadata3732">
    <rdf:RDF>
      <cc:Work
         rdf:about="">
        <dc:format>image/svg+xml</dc:format>
        <dc:type
           rdf:resource="http://purl.org/dc/dcmitype/StillImage" />
        <dc:title></dc:title>
      </cc:Work>
    </rdf:RDF>
  </metadata>
  <defs
     id="defs3730" />
  <sodipodi:namedview
     pagecolor="#ffffff"
     bordercolor="#666666"
     borderopacity="1"
     objecttolerance="10"
     gridtolerance="10"
     guidetolerance="10"
     inkscape:pageopacity="0"
     inkscape:pageshadow="2"
     inkscape:window-width="1920"
     inkscape:window-height="1017"
     id="namedview3728"
     showgrid="false"
     fit-margin-top="0"
     fit-margin-left="0"
     fit-margin-right="0"
     fit-margin-bottom="0"
     inkscape:zoom="3.5400001"
     inkscape:cx="22.587569"
     inkscape:cy="33.050846"
     inkscape:window-x="-8"
     inkscape:window-y="-8"
     inkscape:window-maximized="1"
     inkscape:current-layer="svg3726" />
  <path
     style="fill:#151515;stroke-width:1.33333325"
     d="m 0,65.989496 c 0,-0.372443 3,-5.95356 6.666666,-12.402482 4.063535,-7.146933 6.666667,-13.346962 6.666667,-15.878386 0,-2.284191 0.675986,-4.378403 1.502192,-4.653804 2.199941,-0.733315 5.428511,-17.400929 3.590636,-18.536798 -2.120126,-1.31031 -0.105846,-10.5180262 2.300922,-10.5180262 1.066771,0 1.939583,-0.8999999 1.939583,-1.9999999 0,-1.09999994 0.6,-1.9999999 1.333333,-1.9999999 0.733333,0 1.333333,0.89999996 1.333333,1.9999999 0,1.1 0.852327,1.9999999 1.89406,1.9999999 2.309201,0 3.888971,6.4106892 2.723791,11.0531412 -1.01169,4.030901 1.69836,18.280191 3.47668,18.280191 0.68134,0 1.2388,1.471768 1.2388,3.270596 0,3.95317 1.74388,8.011341 8.32577,19.37491 2.75416,4.755028 5.00756,9.105027 5.00756,9.666666 0,0.561637 -2.85,1.015057 -6.33333,1.007599 -6.10833,-0.01307 -6.41185,-0.200554 -8.54361,-5.277045 -1.52957,-3.64247 -3.28273,-5.532652 -5.69255,-6.137479 -5.375904,-1.349266 -11.115797,1.701783 -12.998978,6.909631 -1.548054,4.281066 -1.970072,4.518454 -8.032709,4.518454 C 2.879467,66.666664 0,66.361939 0,65.989496 Z M 12.026045,59.93712 c 4.326648,-10.445454 19.655088,-10.363785 24.000878,0.127875 1.18068,2.850418 2.53443,3.935002 4.91156,3.935002 h 3.28163 l -4.03748,-6.999999 -4.03748,-7 -11.739242,-0.373381 c -10.083589,-0.320722 -11.938202,-0.03865 -13.149926,2 -0.775875,1.30536 -2.774811,4.623381 -4.442079,7.373381 l -3.031398,4.999999 h 3.280318 c 2.399002,0 3.73246,-1.091566 4.963219,-4.062877 z m 6.640621,-14.494739 c 0,-0.673355 0.364193,-2.173355 0.809319,-3.333333 0.531081,-1.383978 0.07269,-2.10905 -1.333334,-2.10905 -1.178458,0 -2.142652,0.550928 -2.142652,1.224284 0,0.673355 -0.364193,2.173355 -0.809318,3.333334 -0.531082,1.383977 -0.07269,2.109049 1.333333,2.109049 1.178459,0 2.142652,-0.550928 2.142652,-1.224284 z m 7.979582,-0.442383 c -0.02584,-2.108805 -2.311624,-5.797097 -3.074781,-4.961386 -0.31544,0.345429 -0.988497,1.978053 -1.495681,3.628053 -0.750348,2.441072 -0.40859,3 1.834362,3 1.516086,0 2.74733,-0.75 2.7361,-1.666667 z m 6.444475,-1.666666 c -0.83532,-1.833334 -2.35787,-3.333334 -3.38343,-3.333334 -1.02557,0 -1.62178,0.45 -1.32491,1 0.29688,0.55 0.91345,2.05 1.37018,3.333334 0.45672,1.283333 1.73638,2.333333 2.84367,2.333333 1.66359,0 1.74948,-0.578939 0.49449,-3.333333 z m -4.78127,-6.966308 c -2.396466,-0.296749 -5.996466,-0.290625 -7.999999,0.0136 -2.003533,0.304232 -0.04279,0.547027 4.357212,0.539543 4.399997,-0.0075 6.039257,-0.256402 3.642787,-0.55315 z m 0.54794,-5.017453 c -0.41868,-1.091068 -1.16196,-5.004535 -1.651727,-8.696593 -0.791415,-5.965983 -2.423187,-9.213237 -3.891756,-7.744667 -0.279771,0.27977 -1.337674,4.539851 -2.350895,9.466847 l -1.842221,8.958174 h 5.248921 c 4.098818,0 5.082128,-0.434665 4.487678,-1.983761 z M 26.333332,11.080899 c -1.283333,-0.33537 -3.383333,-0.33537 -4.666666,0 -1.283334,0.33537 -0.233334,0.609764 2.333333,0.609764 2.566667,0 3.616664,-0.274394 2.333333,-0.609764 z M 25.666666,7.1169588 c -0.916667,-0.3698831 -2.416667,-0.3698831 -3.333334,0 -0.916666,0.369883 -0.166666,0.6725146 1.666667,0.6725146 1.833333,0 2.583333,-0.3026316 1.666667,-0.6725146 z"
     id="path3736"
     inkscape:connector-curvature="0" />
</svg>
